<?xml version="1.0" encoding="UTF-8"?>
<!DOCTYPE svg PUBLIC "-//W3C//DTD SVG 1.1//EN" "http://www.w3.org/Graphics/SVG/1.1/DTD/svg11.dtd">
<!-- Creator: CorelDRAW X7 -->
<svg xmlns="http://www.w3.org/2000/svg" xml:space="preserve" width="567px" height="567px" version="1.1" style="shape-rendering:geometricPrecision; text-rendering:geometricPrecision; image-rendering:optimizeQuality; fill-rule:evenodd; clip-rule:evenodd"
viewBox="0 0 567 567"
 xmlns:xlink="http://www.w3.org/1999/xlink">
 <defs>
  <style type="text/css">
   <![CDATA[
    .str0 {stroke:#F98100;stroke-width:36.0045}
    .fil0 {fill:none}
    .fil1 {fill:#F98100}
   ]]>
  </style>
 </defs>
 <g id="Camada_x0020_1">
  <metadata id="CorelCorpID_0Corel-Layer"/>
  <rect class="fil0 str0" x="109" y="75" width="363" height="363" rx="51" ry="51"/>
  <g id="_2311691744624">
   <g id="Canvas">
    <g id="Path-3">
     <g>
      <g>
       <path class="fil1" d="M216 233c-9,-14 -26,-17 -39,-8 -13,8 -17,26 -8,39l47 -31zm16 126c3,4 6,7 10,9 4,2 8,3 13,4 4,0 8,-1 12,-3 4,-2 8,-4 11,-8l-46 -2zm181 -164c9,-12 8,-30 -5,-40 -12,-10 -30,-8 -39,4l44 36zm-155 101l-42 -63 -47 31 63 95 13 -32 13 -31 -26 63 46 2 135 -166 -45 -36 -52 65 -52 64 -6 8z"/>
      </g>
     </g>
    </g>
   </g>
  </g>
 </g>
</svg>
