<?xml version="1.0" encoding="utf-8"?>
<!-- Svg Vector Icons : http://www.onlinewebfonts.com/icon -->
<!DOCTYPE svg PUBLIC "-//W3C//DTD SVG 1.1//EN" "http://www.w3.org/Graphics/SVG/1.1/DTD/svg11.dtd">
<svg version="1.1" xmlns="http://www.w3.org/2000/svg" xmlns:xlink="http://www.w3.org/1999/xlink" x="0px" y="0px" viewBox="0 0 1000 1000" enable-background="new 0 0 1000 1000" xml:space="preserve">
<metadata> Svg Vector Icons : http://www.onlinewebfonts.com/icon </metadata>
<g><g><g><path d="M805,136H660.3v61v21.7c0,21.7-8.1,41.2-23.5,56.5c-15.3,15.3-34.9,23.5-56.5,23.5H419.7c-21.6,0-41.2-8.1-56.5-23.4c-15.4-15.3-23.5-34.9-23.5-56.6V197v-61H195c-8.3,0-15.4,3-21.5,9c-6,6.1-9.1,13.2-9.1,21.4v793c0,8.3,3,15.4,9.1,21.4c6,6,13.2,9.1,21.5,9.1h203.8c-0.7-3.5-1.2-7.1-1.2-10.9V929v-88.8c0-13.8,5-25.8,15.2-36c10.1-10.1,22.1-15.2,36-15.2h102.4c13.9,0,25.9,5.1,36,15.2c10.1,10.2,15.2,22.2,15.2,36V929v50.1c0,3.8-0.4,7.4-1.2,10.9H805c8.3,0,15.4-3,21.4-9.1c6-6,9.1-13.2,9.1-21.4v-793c0-8.3-3-15.4-9.1-21.4C820.4,139,813.3,136,805,136z M753.6,712c-3.7,3.7-8,5.5-13,5.5h-37c-5,0-9.4-1.8-13-5.5c-3.7-3.7-5.5-8-5.5-13v-37c0-5,1.8-9.3,5.5-13c3.7-3.7,8-5.5,13-5.5h37c5,0,9.3,1.8,13,5.5c3.7,3.7,5.5,8,5.5,13v37C759.1,704.1,757.2,708.4,753.6,712z M759.1,810.1v37c0,5-1.8,9.4-5.5,13c-3.7,3.7-8,5.5-13,5.5h-37c-5,0-9.4-1.8-13-5.5c-3.7-3.7-5.5-8-5.5-13v-37c0-5,1.8-9.3,5.5-13c3.7-3.7,8-5.5,13-5.5h37c5,0,9.3,1.8,13,5.5C757.2,800.7,759.1,805.1,759.1,810.1z M753.6,564c-3.7,3.7-8,5.5-13,5.5h-37c-5,0-9.4-1.8-13-5.5c-3.7-3.7-5.5-8-5.5-13v-37c0-5,1.8-9.4,5.5-13c3.7-3.7,8-5.5,13-5.5h37c5,0,9.3,1.8,13,5.5c3.7,3.7,5.5,8,5.5,13v37C759.1,556,757.2,560.4,753.6,564z M753.6,416c-3.7,3.7-8,5.5-13,5.5h-37c-5,0-9.4-1.8-13-5.5c-3.7-3.7-5.5-8-5.5-13v-37c0-5,1.8-9.3,5.5-13c3.7-3.7,8-5.5,13-5.5h37c5,0,9.3,1.8,13,5.5c3.7,3.7,5.5,8,5.5,13v37C759.1,408,757.2,412.3,753.6,416z M753.6,267.9c-3.7,3.7-8,5.5-13,5.5h-37c-5,0-9.4-1.8-13-5.5c-3.7-3.7-5.5-8-5.5-13v-37c0-5,1.8-9.3,5.5-13c3.7-3.7,8-5.5,13-5.5h37c5,0,9.3,1.8,13,5.5c3.7,3.7,5.5,8,5.5,13v37C759.1,259.9,757.2,264.3,753.6,267.9z M537,365.9c0-5,1.8-9.3,5.5-13c3.7-3.7,8-5.5,13-5.5h37c5,0,9.3,1.8,13,5.5c3.7,3.7,5.5,8,5.5,13v37c0,5-1.8,9.4-5.5,13c-3.7,3.7-8,5.5-13,5.5h-37c-5,0-9.3-1.8-13-5.5c-3.7-3.7-5.5-8-5.5-13V365.9z M537,514c0-5,1.8-9.4,5.5-13c3.7-3.7,8-5.5,13-5.5h37c5,0,9.3,1.8,13,5.5c3.7,3.7,5.5,8,5.5,13v37c0,5-1.8,9.4-5.5,13c-3.7,3.7-8,5.5-13,5.5h-37c-5,0-9.3-1.8-13-5.5c-3.7-3.7-5.5-8-5.5-13V514z M309.5,712c-3.7,3.7-8,5.5-13,5.5h-37c-5,0-9.4-1.8-13-5.5c-3.7-3.7-5.5-8-5.5-13v-37c0-5,1.8-9.3,5.5-13c3.7-3.7,8-5.5,13-5.5h37c5,0,9.3,1.8,13,5.5c3.7,3.7,5.5,8,5.5,13v37C314.9,704.1,313.1,708.4,309.5,712z M314.9,810.1v37c0,5-1.8,9.4-5.5,13c-3.7,3.7-8,5.5-13,5.5h-37c-5,0-9.4-1.8-13-5.5c-3.7-3.7-5.5-8-5.5-13v-37c0-5,1.8-9.3,5.5-13c3.7-3.7,8-5.5,13-5.5h37c5,0,9.3,1.8,13,5.5C313.1,800.7,314.9,805.1,314.9,810.1z M309.5,564c-3.7,3.7-8,5.5-13,5.5h-37c-5,0-9.4-1.8-13-5.5c-3.7-3.7-5.5-8-5.5-13v-37c0-5,1.8-9.4,5.5-13c3.7-3.7,8-5.5,13-5.5h37c5,0,9.3,1.8,13,5.5c3.7,3.7,5.5,8,5.5,13v37C314.9,556,313.1,560.4,309.5,564z M309.5,416c-3.7,3.7-8,5.5-13,5.5h-37c-5,0-9.4-1.8-13-5.5c-3.7-3.7-5.5-8-5.5-13v-37c0-5,1.8-9.3,5.5-13c3.7-3.7,8-5.5,13-5.5h37c5,0,9.3,1.8,13,5.5c3.7,3.7,5.5,8,5.5,13v37C314.9,408,313.1,412.3,309.5,416z M309.5,267.9c-3.7,3.7-8,5.5-13,5.5h-37c-5,0-9.4-1.8-13-5.5c-3.7-3.7-5.5-8-5.5-13v-37c0-5,1.8-9.3,5.5-13c3.7-3.7,8-5.5,13-5.5h37c5,0,9.3,1.8,13,5.5c3.7,3.7,5.5,8,5.5,13v37C314.9,259.9,313.1,264.3,309.5,267.9z M463,699c0,5-1.8,9.4-5.5,13c-3.7,3.7-8,5.5-13,5.5h-37c-5,0-9.3-1.8-13-5.5c-3.7-3.7-5.5-8-5.5-13v-37c0-5,1.8-9.3,5.5-13c3.7-3.7,8-5.5,13-5.5h37c5,0,9.3,1.8,13,5.5c3.7,3.7,5.5,8,5.5,13V699z M463,551c0,5-1.8,9.4-5.5,13c-3.7,3.7-8,5.5-13,5.5h-37c-5,0-9.3-1.8-13-5.5c-3.7-3.7-5.5-8-5.5-13v-37c0-5,1.8-9.4,5.5-13c3.7-3.7,8-5.5,13-5.5h37c5,0,9.3,1.8,13,5.5c3.7,3.7,5.5,8,5.5,13V551z M463,403c0,5-1.8,9.4-5.5,13c-3.7,3.7-8,5.5-13,5.5h-37c-5,0-9.3-1.8-13-5.5c-3.7-3.7-5.5-8-5.5-13v-37c0-5,1.8-9.3,5.5-13c3.7-3.7,8-5.5,13-5.5h37c5,0,9.3,1.8,13,5.5c3.7,3.7,5.5,8,5.5,13V403z M592.5,717.5h-37c-5,0-9.3-1.8-13-5.5c-3.7-3.7-5.5-8-5.5-13v-37c0-5,1.8-9.3,5.5-13c3.7-3.7,8-5.5,13-5.5h37c5,0,9.3,1.8,13,5.5c3.7,3.7,5.5,8,5.5,13v37c0,5-1.8,9.4-5.5,13C601.9,715.7,597.5,717.5,592.5,717.5z"/><path d="M389,255.4c8.8,7.4,18.9,11.4,30.7,11.4h38.7h83.2h38.7c11.8,0,22-3.9,30.7-11.4c1.1-0.9,2.2-1.7,3.3-2.7c9.4-9.4,14.1-20.8,14.1-34V197v-61V58.2c0-13.3-4.7-24.6-14.1-34c-9.4-9.4-20.8-14.1-34-14.1H419.7c-13.3,0-24.6,4.7-34,14.1c-9.4,9.4-14.1,20.8-14.1,34V136v61v21.7c0,13.3,4.7,24.6,14.1,34C386.8,253.7,387.9,254.5,389,255.4z M414.4,136V63.5c0-2.9,1.1-5.4,3.2-7.5c2.1-2.1,4.6-3.2,7.5-3.2h21.4c2.9,0,5.4,1.1,7.5,3.2c2.1,2.1,3.2,4.6,3.2,7.5V117h85.6V63.5c0-2.9,1.1-5.4,3.2-7.5c2.1-2.1,4.6-3.2,7.5-3.2h21.4c2.9,0,5.4,1.1,7.5,3.2c2.1,2.1,3.2,4.6,3.2,7.5V136v61v2.4v13.9c0,2.9-1.1,5.4-3.2,7.5c-2.1,2.1-4.6,3.2-7.5,3.2h-21.4c-2.9,0-5.4-1.1-7.5-3.2c-2.1-2.1-3.2-4.6-3.2-7.5v-8.7V197v-37.2h-85.6V197v7.7v8.7c0,2.9-1.1,5.4-3.2,7.5c-2.1,2.1-4.6,3.2-7.5,3.2h-21.4c-2.9,0-5.4-1.1-7.5-3.2c-2.1-2.1-3.2-4.6-3.2-7.5v-13.9V197L414.4,136L414.4,136z"/></g></g><g></g><g></g><g></g><g></g><g></g><g></g><g></g><g></g><g></g><g></g><g></g><g></g><g></g><g></g><g></g></g>
</svg>